HIERARCHY
ROOT Hips
{
	OFFSET 0.00000 0.00000 0.00000
	CHANNELS 6 Xposition Yposition Zposition Yrotation Zrotation Xrotation 
	JOINT Lumbar
	{
		OFFSET 0 0 0
		CHANNELS 3 Zrotation Xrotation Yrotation
		JOINT Neck
		{
			OFFSET 0.00 0.2701 0.00
			CHANNELS 3 Zrotation Xrotation Yrotation
			End Site
			{
				OFFSET 0.00 0.1379 0.00
			}
		}
		JOINT RightShoulder
		{
			OFFSET 0.0119 0.2289 0.1181
			CHANNELS 3 Zrotation Xrotation Yrotation
			JOINT RightElbow
			{
				OFFSET 0.00 -0.1475 0.00
				CHANNELS 2 Zrotation Yrotation
				JOINT RightWrist
				{
					OFFSET 0.00 -0.1605 0.00
					CHANNELS 2 Zrotation Xrotation
					End Site
					{
						OFFSET 0.0040 -0.1068 0.0006
					}
				}
			}
		}
		JOINT LeftShoulder
		{
			OFFSET 0.0119 0.2289 -0.1181
			CHANNELS 3 Zrotation Xrotation Yrotation
			JOINT LeftElbow
			{
				OFFSET 0.00 -0.1475 0.00
				CHANNELS 2 Zrotation Yrotation
				JOINT LeftWrist
				{
					OFFSET 0.00 -0.1605 0.00
					CHANNELS 2 Zrotation Xrotation
					End Site
					{
						OFFSET 0.0040 -0.1068 -0.0006
					}
				}
			}
		}
	}
	JOINT RightHip
	{
		OFFSET 0.0316 -0.0424 0.0458
		CHANNELS 3 Zrotation Xrotation Yrotation
		JOINT RightKnee
		{
			OFFSET 0.00 -0.2438 0.00
			CHANNELS 1 Zrotation
			JOINT RightAnkle
			{
				OFFSET 0.00 -0.2449 0.00
				CHANNELS 3 Zrotation Xrotation Yrotation
				End Site
				{
					OFFSET 0.1237 -0.0542 0.0051
				}
			}
		}
	}
	JOINT LeftHip
	{
		OFFSET 0.0316 -0.0424 -0.0458
		CHANNELS 3 Zrotation Xrotation Yrotation
		JOINT LeftKnee
		{
			OFFSET 0.00 -0.2438 0.00
			CHANNELS 1 Zrotation
			JOINT LeftAnkle
			{
				OFFSET 0.00 -0.2449 0.00
				CHANNELS 3 Zrotation Xrotation Yrotation
				End Site
				{
					OFFSET 0.1237 -0.0542 -0.0051
				}
			}
		}
	}
}
MOTION
Frames: 28
Frame Time: 0.02
0.00073 0.00017 0.00047 -176.5981 -32.33423 5.6077 40.32284 -2.27071 -4.30751 5.37841 -4.57327 -0.95793 -0.34672 -13.36164 8.91602 37.52638 143.7471 20.61488 10.07122 10.04099 7.40789 -4.74235 35.06346 -160.43237 24.04407 -13.26375 53.02146 -12.9 1.38358 -42.9773 -6.60968 -3.49071 -3.91996 40.66144 -3.84779 21.35531 -27.11451 -5.79751 1.32917 2.83985
0.00113 0.00015 0.00055 -176.56485 -32.3543 5.60029 40.33511 -2.28824 -4.19957 5.16286 -4.52297 -0.9597 -1.16114 -13.60542 8.78799 37.63071 138.54108 19.10701 9.22219 8.89849 7.57425 -4.08596 34.64061 -153.48432 22.15829 -12.07966 53.08012 -12.93484 1.31247 -42.97608 -6.60959 -3.48203 -3.91627 40.74141 -3.86195 21.26966 -27.13743 -5.79878 1.32984 2.84158
0.00152 0.00013 0.00063 -176.53163 -32.37446 5.59272 40.34739 -2.30567 -4.09187 4.94764 -4.4726 -0.96146 -1.97479 -13.84859 8.65921 37.73451 133.35747 17.60551 8.37685 7.75706 7.74022 -3.43022 34.21885 -146.55752 20.27809 -10.89929 53.13858 -12.96947 1.24127 -42.97457 -6.60949 -3.47335 -3.91258 40.82131 -3.87583 21.18435 -27.16025 -5.80008 1.33048 2.8433
0.00192 0.00011 0.00071 -176.49847 -32.39448 5.58532 40.35962 -2.32315 -3.98425 4.73269 -4.42243 -0.96322 -2.78694 -14.09165 8.53141 37.83848 128.169 16.1027 7.53069 6.61774 7.9061 -2.77561 33.79721 -139.63082 18.39807 -9.71885 53.19706 -13.0042 1.17035 -42.97333 -6.6094 -3.4647 -3.9089 40.90105 -3.88991 21.09903 -27.18311 -5.80135 1.33114 2.84503
0.00231 9e-05 0.0008 -176.4653 -32.41438 5.57811 40.37186 -2.34072 -3.87642 4.51755 -4.3724 -0.96499 -3.5993 -14.33524 8.4047 37.94307 122.95443 14.59251 6.68021 5.47809 8.07231 -2.12094 33.37469 -132.68301 16.5126 -8.53465 53.25574 -13.03916 1.09957 -42.97244 -6.60931 -3.45603 -3.90522 40.98082 -3.90437 21.01317 -27.20604 -5.80258 1.33187 2.84679
0.00271 7e-05 0.00088 -176.43198 -32.4351 5.56974 40.38421 -2.35785 -3.76903 4.30218 -4.32131 -0.96675 -4.41568 -14.57752 8.27155 38.04521 117.83538 13.10913 5.84562 4.33292 8.23775 -1.46302 32.95464 -125.80079 14.64362 -7.36242 53.31372 -13.07307 1.02748 -42.96959 -6.60919 -3.44733 -3.90152 41.06104 -3.91703 20.92894 -27.22864 -5.804 1.33231 2.84842
0.0031 5e-05 0.00096 -176.39899 -32.45406 5.56383 40.39627 -2.3759 -3.66087 4.08749 -4.27247 -0.96852 -5.22274 -14.82221 8.15167 38.15215 112.53368 11.57454 4.98061 3.2006 8.40458 -0.81222 32.52973 -118.79442 12.74352 -6.16746 53.37306 -13.10914 0.95824 -42.97083 -6.60914 -3.43875 -3.89788 41.14017 -3.93329 20.84195 -27.25192 -5.80506 1.3333 2.85028
0.0035 3e-05 0.00104 -176.36572 -32.47481 5.55548 40.4087 -2.39303 -3.5534 3.87219 -4.22144 -0.97028 -6.03901 -15.06458 8.01928 38.25468 107.39326 10.08514 4.14247 2.05552 8.57012 -0.1551 32.10997 -111.90207 10.87209 -4.99333 53.43113 -13.14306 0.88614 -42.96804 -6.60899 -3.42999 -3.89414 41.22049 -3.94623 20.75673 -27.2745 -5.80643 1.33386 2.85197
0.00389 1e-05 0.00111 -176.33199 -32.4971 5.54475 40.42121 -2.40932 -3.4468 3.65595 -4.16815 -0.97204 -6.86477 -15.30461 7.87244 38.35177 102.47737 8.65873 3.3417 0.89754 8.73421 0.51125 31.69363 -105.14801 9.03498 -3.84471 53.48772 -13.17495 0.81135 -42.96131 -6.60889 -3.42128 -3.89043 41.30156 -3.95509 20.67675 -27.29651 -5.80826 1.33358 2.8533
0.0043 -3e-05 0.00122 -176.30055 -32.5086 5.54953 40.43212 -2.43127 -3.33524 3.44452 -4.12908 -0.97381 -7.63066 -15.55961 7.81122 38.47999 96.35194 6.89322 2.33954 -0.1782 8.90699 1.12904 31.24894 -97.59481 6.99817 -2.54941 53.55305 -13.22035 0.75448 -42.9802 -6.609 -3.41308 -3.887 41.3762 -3.98734 20.57585 -27.32269 -5.80766 1.33716 2.85626
0.00466 -1e-05 0.00126 -176.2645 -32.54407 5.52044 40.44711 -2.44075 -3.23414 3.22338 -4.05925 -0.97557 -8.52598 -15.78205 7.56791 38.54265 92.72549 5.82818 1.75352 -1.43218 9.06122 1.84618 30.86964 -91.73042 5.3843 -1.56361 53.5998 -13.2361 0.65829 -42.94318 -6.60837 -3.40327 -3.88271 41.46574 -3.9703 20.51319 -27.33949 -5.81208 1.33323 2.85604
0.00492 0.00019 0.00112 -176.21412 -32.63642 5.40683 40.468 -2.41992 -3.16232 2.97166 -3.91039 -0.97732 -9.7545 -15.92202 6.83144 38.42225 96.47048 6.8306 2.39452 -3.1424 9.16574 2.86422 30.62583 -90.52214 4.92891 -1.43504 53.59642 -13.17847 0.46578 -42.76593 -6.6081 -3.39331 -3.87825 41.58586 -3.81568 20.60651 -27.33497 -5.83134 1.30316 2.84474
0.00512 0.00046 0.00091 -176.15956 -32.75462 5.25756 40.49408 -2.38577 -3.10104 2.71108 -3.72966 -0.97908 -11.11651 -16.02778 5.91097 38.23636 102.63715 8.51171 3.43885 -5.0375 9.25133 3.97631 30.45585 -91.00611 4.89882 -1.61583 53.57428 -13.08925 0.23201 -42.5299 -6.60668 -3.38082 -3.87247 41.72286 -3.6116 20.72995 -27.32014 -5.8555 1.26645 2.83061
0.00533 0.00071 0.00072 -176.10786 -32.86666 5.11927 40.52109 -2.35522 -3.03436 2.45694 -3.56002 -0.98083 -12.43256 -16.145 5.07029 38.08277 107.35025 9.78455 4.24144 -6.86984 9.34489 5.02756 30.28074 -90.70064 4.67512 -1.64976 53.56011 -13.00973 0.00903 -42.31239 -6.60415 -3.36683 -3.86593 41.85887 -3.43218 20.80474 -27.30726 -5.87664 1.23657 2.81937
0.00559 0.0009 0.00059 -176.05158 -32.95467 5.0034 40.53376 -2.33525 -2.96968 2.19196 -3.40463 -0.98258 -13.68918 -16.28036 4.24505 37.91928 113.52722 11.47108 5.28644 -8.61384 9.44139 6.15745 29.98568 -90.48236 4.45263 -1.71053 53.54808 -12.95127 -0.18203 -42.13014 -6.60833 -3.36446 -3.86532 41.96671 -3.24509 21.0223 -27.30624 -5.90088 1.19113 2.80157
0.00574 0.00123 0.00032 -176.00448 -33.09949 4.83185 40.57812 -2.2898 -2.90405 1.94824 -3.21198 -0.98434 -15.09822 -16.36862 3.34451 37.7597 117.26853 12.46829 5.92855 -10.58432 9.52691 7.14327 29.95812 -90.48645 4.32974 -1.78904 53.52736 -12.83965 -0.44734 -41.85954 -6.5985 -3.33674 -3.85179 42.1372 -3.06019 20.95576 -27.27765 -5.92013 1.17582 2.79647
0.00564 0.00192 -0.00028 -175.97823 -33.38918 4.52013 40.70368 -2.17968 -2.82737 1.75871 -2.92489 -0.98608 -16.91996 -16.3451 2.27614 37.6377 113.34963 11.29665 5.30346 -13.14467 9.58974 7.72945 30.64916 -90.66129 4.36588 -1.83694 53.48486 -12.60475 -0.92505 -41.36705 -6.54843 -3.24457 -3.80515 42.47643 -2.91139 20.0441 -27.17915 -5.92185 1.25144 2.82966
0.00543 0.00275 -0.00101 -175.96226 -33.73606 4.15288 40.86189 -2.04398 -2.75074 1.5921 -2.60148 -0.98782 -18.88513 -16.27314 1.13827 37.52021 106.96317 9.4275 4.26991 -15.92367 9.64155 8.16322 31.60679 -91.00721 4.49012 -1.89266 53.43432 -12.31472 -1.47303 -40.7858 -6.48476 -3.12618 -3.74519 42.87792 -2.76338 18.85507 -27.05255 -5.91884 1.3565 2.87528
0.00527 0.00352 -0.0017 -175.9454 -34.06069 3.80768 41.00845 -1.91834 -2.67761 1.41939 -2.29405 -0.98958 -20.76945 -16.21735 0.03684 37.39326 101.92459 7.94095 3.45915 -18.59742 9.69651 8.65301 32.44422 -91.29235 4.58115 -1.94718 53.38957 -12.03933 -1.97708 -40.24071 -6.42839 -3.01639 -3.68975 43.25124 -2.60298 17.82837 -26.9364 -5.91971 1.44401 2.91353
0.00514 0.00427 -0.00232 -175.91302 -34.3711 3.47403 41.14172 -1.79862 -2.5889 1.22821 -1.98694 -0.9913 -22.72759 -16.18659 -1.0872 37.2941 95.99731 6.19573 2.50306 -21.30661 9.7589 9.20267 33.28197 -91.56158 4.65636 -2.0024 53.33684 -11.80595 -2.53222 -39.71303 -6.36678 -2.91996 -3.64041 43.6255 -2.49076 16.65098 -26.82975 -5.91352 1.54871 2.95885
0.0049 0.00511 -0.00312 -175.91471 -34.72352 3.10442 41.31038 -1.66092 -2.53385 1.081 -1.67197 -0.99309 -24.56053 -16.09067 -2.18368 37.14047 91.32496 4.82154 1.75055 -23.98627 9.80315 9.58935 34.17916 -91.88675 4.78222 -2.05421 53.29694 -11.47348 -2.99833 -39.12651 -6.31346 -2.79022 -3.5756 44.01126 -2.28011 15.71941 -26.69671 -5.92076 1.62493 2.99252
0.00443 0.00619 -0.00436 -176.01463 -35.18493 2.64229 41.56873 -1.47762 -2.56003 1.05029 -1.33569 -0.99509 -26.04303 -15.8447 -3.13683 36.82287 90.51687 4.57867 1.62986 -26.57233 9.80161 9.57296 35.1942 -92.28743 5.00691 -2.09231 53.31228 -10.87183 -3.1911 -38.41865 -6.28147 -2.56883 -3.4682 44.42271 -1.78846 15.54949 -26.49827 -5.96695 1.61336 2.99021
0.00385 0.00737 -0.00579 -176.14729 -35.68507 2.14736 41.86154 -1.27754 -2.62205 1.06293 -0.99462 -0.99717 -27.38754 -15.53234 -4.06619 36.45287 91.07593 4.73964 1.73071 -29.11074 9.78139 9.3977 36.25584 -92.74177 5.28272 -2.12636 53.33736 -10.17433 -3.29396 -37.65131 -6.25917 -2.316 -3.34629 44.84165 -1.19971 15.63335 -26.27422 -6.02666 1.57254 2.97589
0.00331 0.00849 -0.00713 -176.26058 -36.16295 1.67207 42.13861 -1.08671 -2.67547 1.05533 -0.66132 -0.99921 -28.77551 -15.23784 -5.04114 36.11547 91.13993 4.75691 1.74929 -31.64501 9.76951 9.28556 37.28351 -93.18117 5.5436 -2.16132 53.3466 -9.52669 -3.444 -36.89874 -6.23575 -2.08156 -3.23309 45.25125 -0.66151 15.59135 -26.06152 -6.0797 1.54638 2.96755
0.00282 0.00965 -0.00847 -176.3931 -36.66307 1.17477 42.41726 -0.88828 -2.69709 1.0509 -0.30264 -1.00125 -30.25272 -14.99071 -5.88048 35.7414 90.61496 4.59091 1.68047 -34.30293 9.7603 9.19753 38.37501 -93.56781 5.76581 -2.19758 53.40453 -8.85008 -3.56816 -36.19475 -6.19826 -1.82879 -3.11045 45.68865 -0.096 15.58509 -25.84891 -6.13483 1.51538 2.9574
0.00219 0.01077 -0.00986 -176.49329 -37.12461 0.71635 42.70023 -0.70186 -2.79268 1.04974 0.00321 -1.00332 -31.5058 -14.63342 -6.98481 35.43081 91.63742 4.90051 1.84615 -36.68034 9.7382 9.03477 39.34056 -94.09965 6.08823 -2.23391 53.36246 -8.21233 -3.72605 -35.37666 -6.19223 -1.60719 -3.00423 46.06842 0.43546 15.56706 -25.63055 -6.18884 1.48724 2.94806
0.00123 0.01179 -0.01138 -176.49488 -37.47589 0.37316 42.98786 -0.55441 -3.09017 1.0481 0.16688 -1.00541 -32.20252 -13.95811 -8.91727 35.31184 96.90985 6.52047 2.65251 -38.36654 9.71518 8.60069 39.95025 -94.78462 6.593 -2.23517 53.0505 -7.70069 -3.97976 -34.25864 -6.27341 -1.4788 -2.94675 46.29255 0.85084 15.46648 -25.40167 -6.23683 1.4731 2.94344
0.00013 0.01277 -0.01294 -176.46265 -37.78554 0.07073 43.27823 -0.4195 -3.4595 1.04801 0.276 -1.00753 -32.67171 -13.18072 -11.09836 35.2577 103.64274 8.58965 3.67981 -39.75645 9.67713 8.11142 40.42953 -95.64436 7.20717 -2.24155 52.63609 -7.2326 -4.27309 -33.02857 -6.38544 -1.38319 -2.90642 46.45706 1.22817 15.3446 -25.16828 -6.28319 1.46285 2.94008
